<svg id="visual" viewBox="0 0 900 600" width="900" height="600" xmlns="http://www.w3.org/2000/svg" xmlns:xlink="http://www.w3.org/1999/xlink" version="1.1"><rect x="0" y="0" width="900" height="600" fill="#001220"></rect><defs><linearGradient id="grad1_0" x1="33.3%" y1="100%" x2="100%" y2="0%"><stop offset="20%" stop-color="#001220" stop-opacity="1"></stop><stop offset="80%" stop-color="#001220" stop-opacity="1"></stop></linearGradient></defs><defs><linearGradient id="grad2_0" x1="0%" y1="100%" x2="66.7%" y2="0%"><stop offset="20%" stop-color="#001220" stop-opacity="1"></stop><stop offset="80%" stop-color="#001220" stop-opacity="1"></stop></linearGradient></defs><g transform="translate(900, 600)"><path d="M-297.5 0C-279.3 -33.2 -261.2 -66.5 -249.4 -103.3C-237.7 -140.2 -232.2 -180.7 -210.3 -210.3C-188.5 -240 -150.3 -258.9 -112.5 -271.6C-74.7 -284.3 -37.4 -290.9 0 -297.5L0 0Z" fill="#6366F1"></path></g><g transform="translate(0, 0)"><path d="M297.5 0C276.1 34.4 254.7 68.7 235.6 97.6C216.5 126.4 199.8 149.8 181.7 181.7C163.7 213.6 144.3 254.1 113.8 274.8C83.3 295.5 41.7 296.5 0 297.5L0 0Z" fill="#6366F1"></path></g></svg>