<svg width="24" height="24" viewBox="0 0 24 24" fill="none" xmlns="http://www.w3.org/2000/svg">
<path d="M4 6C4 4.89543 4.89543 4 6 4H15.1716C15.702 4 16.2107 4.21071 16.5858 4.58579L19.3958 7.39582C20.0448 8.04475 20.1688 9.05207 19.6966 9.83902L16.2572 15.5713C16.0883 15.8528 15.8528 16.0883 15.5713 16.2572L9.83902 19.6966C9.05207 20.1688 8.04475 20.0448 7.39582 19.3958L4.58579 16.5858C4.21071 16.2107 4 15.702 4 15.1716V6Z" fill="#111827"/>
<rect x="7.5" y="7.5" width="12" height="12" rx="1.5" fill="white" stroke="#111827"/>
<path d="M15.09 16.28C15.2367 16.2933 15.34 16.3333 15.4 16.4C15.4667 16.46 15.5 16.5467 15.5 16.66C15.5 16.7933 15.4467 16.8967 15.34 16.97C15.24 17.0367 15.09 17.0633 14.89 17.05L14.62 17.03C14.08 16.99 13.6767 16.8267 13.41 16.54C13.1433 16.2467 13.01 15.8167 13.01 15.25V12.9H12.41C12.1167 12.9 11.97 12.77 11.97 12.51C11.97 12.39 12.0067 12.2967 12.08 12.23C12.16 12.1567 12.27 12.12 12.41 12.12H13.01V11.09C13.01 10.9367 13.0533 10.8167 13.14 10.73C13.2333 10.6433 13.3567 10.6 13.51 10.6C13.6633 10.6 13.7867 10.6433 13.88 10.73C13.9733 10.8167 14.02 10.9367 14.02 11.09V12.12H15.01C15.15 12.12 15.2567 12.1567 15.33 12.23C15.41 12.2967 15.45 12.39 15.45 12.51C15.45 12.6367 15.41 12.7333 15.33 12.8C15.2567 12.8667 15.15 12.9 15.01 12.9H14.02V15.32C14.02 15.6333 14.0833 15.8633 14.21 16.01C14.3433 16.1567 14.5433 16.24 14.81 16.26L15.09 16.28Z" fill="#111827"/>
</svg>
