<svg width="85" height="24" viewBox="0 0 85 24" fill="none" xmlns="http://www.w3.org/2000/svg">
<path d="M28.8 16.056C29.1733 16.088 29.36 16.2587 29.36 16.568C29.36 16.7493 29.2907 16.888 29.152 16.984C29.024 17.0693 28.8267 17.1013 28.56 17.08L28.128 17.048C27.2747 16.984 26.6453 16.728 26.24 16.28C25.8347 15.832 25.632 15.1547 25.632 14.248V10.232H24.56C24.3787 10.232 24.2347 10.1893 24.128 10.104C24.032 10.008 23.984 9.88533 23.984 9.736C23.984 9.576 24.032 9.448 24.128 9.352C24.2347 9.256 24.3787 9.208 24.56 9.208H25.632V7.4C25.632 7.19733 25.6907 7.04267 25.808 6.936C25.9253 6.81867 26.0853 6.76 26.288 6.76C26.48 6.76 26.6347 6.81867 26.752 6.936C26.8693 7.04267 26.928 7.19733 26.928 7.4V9.208H28.704C28.8747 9.208 29.008 9.256 29.104 9.352C29.2107 9.448 29.264 9.576 29.264 9.736C29.264 9.88533 29.2107 10.008 29.104 10.104C29.008 10.1893 28.8747 10.232 28.704 10.232H26.928V14.312C26.928 14.8987 27.0453 15.3253 27.28 15.592C27.5253 15.848 27.888 15.992 28.368 16.024L28.8 16.056ZM36.3473 9.448C36.4646 9.192 36.6513 9.064 36.9073 9.064C37.0673 9.064 37.2113 9.11733 37.3393 9.224C37.4673 9.33067 37.5312 9.464 37.5312 9.624C37.5312 9.72 37.5099 9.80533 37.4673 9.88L32.9713 19.576C32.9179 19.6933 32.8379 19.784 32.7313 19.848C32.6353 19.912 32.5339 19.944 32.4273 19.944C32.2673 19.944 32.1233 19.8907 31.9953 19.784C31.8779 19.688 31.8193 19.56 31.8193 19.4C31.8193 19.3147 31.8406 19.2293 31.8832 19.144L33.0033 16.728L29.8353 9.88C29.7926 9.80533 29.7713 9.72533 29.7713 9.64C29.7713 9.48 29.8406 9.34133 29.9793 9.224C30.1286 9.10667 30.2886 9.048 30.4593 9.048C30.5659 9.048 30.6673 9.08 30.7633 9.144C30.8699 9.208 30.9499 9.29867 31.0033 9.416L33.6753 15.416L36.3473 9.448ZM42.87 9.016C43.5527 9.016 44.1553 9.18667 44.678 9.528C45.2007 9.86933 45.606 10.3493 45.894 10.968C46.182 11.576 46.326 12.2853 46.326 13.096C46.326 13.9067 46.182 14.616 45.894 15.224C45.606 15.8213 45.2007 16.2853 44.678 16.616C44.166 16.9467 43.5633 17.112 42.87 17.112C42.262 17.112 41.7287 16.9787 41.27 16.712C40.822 16.4453 40.4807 16.0667 40.246 15.576V19.336C40.246 19.528 40.1873 19.6773 40.07 19.784C39.9633 19.9013 39.8087 19.96 39.606 19.96C39.4033 19.96 39.2433 19.9013 39.126 19.784C39.0087 19.6667 38.95 19.5173 38.95 19.336V9.688C38.95 9.496 39.0087 9.34133 39.126 9.224C39.2433 9.10667 39.4033 9.048 39.606 9.048C39.8087 9.048 39.9633 9.10667 40.07 9.224C40.1873 9.34133 40.246 9.496 40.246 9.688V10.552C40.4807 10.0613 40.822 9.68267 41.27 9.416C41.7287 9.14933 42.262 9.016 42.87 9.016ZM42.614 16.04C43.3713 16.04 43.958 15.784 44.374 15.272C44.79 14.76 44.998 14.0347 44.998 13.096C44.998 12.1573 44.79 11.4267 44.374 10.904C43.958 10.3707 43.3713 10.104 42.614 10.104C41.8567 10.104 41.27 10.36 40.854 10.872C40.4487 11.384 40.246 12.1147 40.246 13.064C40.246 14.0133 40.4487 14.7493 40.854 15.272C41.27 15.784 41.8567 16.04 42.614 16.04ZM48.9185 17.08C48.7265 17.08 48.5665 17.0267 48.4385 16.92C48.3212 16.8027 48.2625 16.6427 48.2625 16.44V9.688C48.2625 9.48533 48.3212 9.33067 48.4385 9.224C48.5665 9.10667 48.7265 9.048 48.9185 9.048C49.1105 9.048 49.2652 9.10667 49.3825 9.224C49.4998 9.33067 49.5585 9.48533 49.5585 9.688V16.44C49.5585 16.6533 49.4998 16.8133 49.3825 16.92C49.2652 17.0267 49.1105 17.08 48.9185 17.08ZM48.9185 7.368C48.6625 7.368 48.4545 7.29333 48.2945 7.144C48.1345 6.99467 48.0545 6.79733 48.0545 6.552C48.0545 6.31733 48.1345 6.12533 48.2945 5.976C48.4545 5.82667 48.6625 5.752 48.9185 5.752C49.1745 5.752 49.3825 5.82667 49.5425 5.976C49.7025 6.12533 49.7825 6.31733 49.7825 6.552C49.7825 6.79733 49.7025 6.99467 49.5425 7.144C49.3825 7.29333 49.1745 7.368 48.9185 7.368ZM55.4213 6.744C54.8559 6.78667 54.4293 6.968 54.1413 7.288C53.8533 7.59733 53.7093 8.06667 53.7093 8.696V9.208H55.4852C55.6666 9.208 55.8053 9.256 55.9013 9.352C55.9973 9.448 56.0453 9.576 56.0453 9.736C56.0453 9.896 55.9973 10.0187 55.9013 10.104C55.8053 10.1893 55.6666 10.232 55.4852 10.232H53.7093V16.44C53.7093 16.6427 53.6453 16.8027 53.5173 16.92C53.3999 17.0267 53.2506 17.08 53.0693 17.08C52.8773 17.08 52.7173 17.0267 52.5893 16.92C52.4719 16.8027 52.4133 16.6427 52.4133 16.44V10.232H51.3413C51.1599 10.232 51.0159 10.1893 50.9093 10.104C50.8133 10.008 50.7652 9.88533 50.7652 9.736C50.7652 9.576 50.8133 9.448 50.9093 9.352C51.0159 9.256 51.1599 9.208 51.3413 9.208H52.4133V8.92C52.4133 7.96 52.6533 7.208 53.1332 6.664C53.6133 6.10933 54.3013 5.8 55.1973 5.736L55.6133 5.704C55.8906 5.68267 56.0879 5.70933 56.2053 5.784C56.3333 5.85867 56.3973 5.992 56.3973 6.184C56.3973 6.49333 56.2106 6.66933 55.8373 6.712L55.4213 6.744ZM60.3851 17.112C59.6491 17.112 58.9985 16.9467 58.4331 16.616C57.8785 16.2853 57.4465 15.816 57.1371 15.208C56.8385 14.5893 56.6891 13.8747 56.6891 13.064C56.6891 12.2533 56.8385 11.544 57.1371 10.936C57.4465 10.3173 57.8785 9.84267 58.4331 9.512C58.9985 9.18133 59.6491 9.016 60.3851 9.016C61.1211 9.016 61.7718 9.18133 62.3371 9.512C62.9025 9.84267 63.3345 10.3173 63.6331 10.936C63.9425 11.544 64.0971 12.2533 64.0971 13.064C64.0971 13.8747 63.9425 14.5893 63.6331 15.208C63.3345 15.816 62.9025 16.2853 62.3371 16.616C61.7718 16.9467 61.1211 17.112 60.3851 17.112ZM60.3851 16.04C61.1531 16.04 61.7398 15.7893 62.1451 15.288C62.5611 14.776 62.7691 14.0347 62.7691 13.064C62.7691 12.1147 62.5611 11.384 62.1451 10.872C61.7291 10.3493 61.1425 10.088 60.3851 10.088C59.6278 10.088 59.0411 10.3493 58.6251 10.872C58.2091 11.384 58.0011 12.1147 58.0011 13.064C58.0011 14.024 58.2038 14.76 58.6091 15.272C59.0251 15.784 59.6171 16.04 60.3851 16.04ZM69.8841 9.048C70.3321 9.016 70.5561 9.19733 70.5561 9.592C70.5561 9.76267 70.5081 9.90133 70.4121 10.008C70.3161 10.104 70.1508 10.1627 69.9161 10.184L69.4361 10.232C68.7215 10.296 68.1881 10.552 67.8361 11C67.4948 11.4373 67.3241 11.9547 67.3241 12.552V16.44C67.3241 16.6533 67.2655 16.8133 67.1481 16.92C67.0308 17.0267 66.8761 17.08 66.6841 17.08C66.4921 17.08 66.3321 17.0267 66.2041 16.92C66.0868 16.8027 66.0281 16.6427 66.0281 16.44V9.688C66.0281 9.48533 66.0921 9.33067 66.2201 9.224C66.3481 9.10667 66.5028 9.048 66.6841 9.048C66.8548 9.048 66.9988 9.10667 67.1161 9.224C67.2335 9.33067 67.2921 9.48 67.2921 9.672V10.568C67.5161 10.0987 67.8308 9.74133 68.2361 9.496C68.6521 9.25067 69.1268 9.10667 69.6601 9.064L69.8841 9.048ZM80.3408 9.016C82.0688 9.016 82.9328 10.0453 82.9328 12.104V16.44C82.9328 16.6427 82.8741 16.8027 82.7568 16.92C82.6394 17.0267 82.4848 17.08 82.2928 17.08C82.1008 17.08 81.9408 17.0267 81.8128 16.92C81.6954 16.8027 81.6368 16.6427 81.6368 16.44V12.136C81.6368 11.4213 81.5088 10.904 81.2528 10.584C80.9968 10.264 80.5968 10.104 80.0528 10.104C79.4021 10.104 78.8901 10.3227 78.5168 10.76C78.1434 11.1973 77.9568 11.7893 77.9568 12.536V16.44C77.9568 16.6427 77.8928 16.8027 77.7648 16.92C77.6474 17.0267 77.4928 17.08 77.3008 17.08C77.1088 17.08 76.9541 17.0267 76.8368 16.92C76.7194 16.8027 76.6608 16.6427 76.6608 16.44V12.136C76.6608 11.4213 76.5328 10.904 76.2768 10.584C76.0208 10.264 75.6154 10.104 75.0608 10.104C74.4208 10.104 73.9088 10.3227 73.5248 10.76C73.1514 11.1973 72.9648 11.7893 72.9648 12.536V16.44C72.9648 16.6427 72.9061 16.8027 72.7888 16.92C72.6714 17.0267 72.5168 17.08 72.3248 17.08C72.1328 17.08 71.9728 17.0267 71.8448 16.92C71.7274 16.8027 71.6688 16.6427 71.6688 16.44V9.688C71.6688 9.496 71.7274 9.34133 71.8448 9.224C71.9728 9.10667 72.1328 9.048 72.3248 9.048C72.5061 9.048 72.6554 9.10667 72.7728 9.224C72.8901 9.33067 72.9488 9.48 72.9488 9.672V10.44C73.1834 9.98133 73.5088 9.62933 73.9248 9.384C74.3408 9.13867 74.8208 9.016 75.3648 9.016C76.5808 9.016 77.3754 9.528 77.7488 10.552C77.9728 10.0827 78.3141 9.70933 78.7728 9.432C79.2314 9.15467 79.7541 9.016 80.3408 9.016Z" fill="#111827"/>
<path d="M4 6C4 4.89543 4.89543 4 6 4H15.1716C15.702 4 16.2107 4.21071 16.5858 4.58579L19.3958 7.39582C20.0448 8.04475 20.1688 9.05207 19.6966 9.83902L16.2572 15.5713C16.0883 15.8528 15.8528 16.0883 15.5713 16.2572L9.83902 19.6966C9.05207 20.1688 8.04475 20.0448 7.39582 19.3958L4.58579 16.5858C4.21071 16.2107 4 15.702 4 15.1716V6Z" fill="#111827"/>
<rect x="7.5" y="7.5" width="12" height="12" rx="1.5" fill="white" stroke="#111827"/>
<path d="M15.09 16.28C15.2367 16.2933 15.34 16.3333 15.4 16.4C15.4667 16.46 15.5 16.5467 15.5 16.66C15.5 16.7933 15.4467 16.8967 15.34 16.97C15.24 17.0367 15.09 17.0633 14.89 17.05L14.62 17.03C14.08 16.99 13.6767 16.8267 13.41 16.54C13.1433 16.2467 13.01 15.8167 13.01 15.25V12.9H12.41C12.1167 12.9 11.97 12.77 11.97 12.51C11.97 12.39 12.0067 12.2967 12.08 12.23C12.16 12.1567 12.27 12.12 12.41 12.12H13.01V11.09C13.01 10.9367 13.0533 10.8167 13.14 10.73C13.2333 10.6433 13.3567 10.6 13.51 10.6C13.6633 10.6 13.7867 10.6433 13.88 10.73C13.9733 10.8167 14.02 10.9367 14.02 11.09V12.12H15.01C15.15 12.12 15.2567 12.1567 15.33 12.23C15.41 12.2967 15.45 12.39 15.45 12.51C15.45 12.6367 15.41 12.7333 15.33 12.8C15.2567 12.8667 15.15 12.9 15.01 12.9H14.02V15.32C14.02 15.6333 14.0833 15.8633 14.21 16.01C14.3433 16.1567 14.5433 16.24 14.81 16.26L15.09 16.28Z" fill="#111827"/>
</svg>
