<svg width="95" height="24" viewBox="0 0 95 24" fill="none" xmlns="http://www.w3.org/2000/svg">
<path d="M32.304 6.8C32.3467 7.056 32.368 7.29067 32.368 7.504C32.368 7.86667 32.3093 8.13333 32.192 8.304C32.0747 8.47467 31.888 8.56 31.632 8.56H29.488V18H27.056V8.56H24.24V6.8H32.304ZM41.1709 9.2L37.7629 18.672C37.4002 19.6747 36.9682 20.384 36.4669 20.8C35.9655 21.216 35.2882 21.424 34.4349 21.424C33.9015 21.424 33.4695 21.3173 33.1389 21.104C32.8082 20.8907 32.6429 20.6133 32.6429 20.272C32.6429 20.0907 32.6749 19.9253 32.7389 19.776C32.8029 19.6373 32.9149 19.472 33.0749 19.28C33.3415 19.4613 33.6669 19.552 34.0509 19.552C34.4562 19.552 34.7709 19.4293 34.9949 19.184C35.2295 18.9493 35.4535 18.5067 35.6669 17.856L32.5309 9.2H34.9629L36.8669 15.088L38.7389 9.2H41.1709ZM46.7574 9.04C47.8987 9.04 48.7627 9.41333 49.3494 10.16C49.936 10.896 50.2294 11.984 50.2294 13.424C50.2294 14.3627 50.0587 15.1893 49.7174 15.904C49.376 16.6187 48.896 17.1733 48.2774 17.568C47.6587 17.9627 46.944 18.16 46.1334 18.16C45.6854 18.16 45.136 18.0693 44.4854 17.888V21.648H42.1174V12.56C42.1174 11.696 42.08 11.072 42.0054 10.688C41.9414 10.2933 41.8027 9.95733 41.5894 9.68C41.888 9.50933 42.2027 9.376 42.5334 9.28C42.8747 9.184 43.1947 9.136 43.4934 9.136C43.7174 9.136 43.8987 9.21067 44.0374 9.36C44.176 9.50933 44.2827 9.73867 44.3574 10.048C44.9974 9.376 45.7974 9.04 46.7574 9.04ZM45.7974 16.624C46.4587 16.624 46.96 16.352 47.3014 15.808C47.6534 15.264 47.8294 14.4693 47.8294 13.424C47.8294 12.432 47.7014 11.7067 47.4454 11.248C47.1894 10.7787 46.784 10.544 46.2294 10.544C45.888 10.544 45.5574 10.624 45.2374 10.784C44.9174 10.944 44.6667 11.1413 44.4854 11.376V11.584V16.336C44.9227 16.528 45.36 16.624 45.7974 16.624ZM51.7919 9.2H54.1599V18H51.7919V9.2ZM52.8639 7.584C52.0319 7.584 51.6159 7.168 51.6159 6.336V6.096C51.6159 5.264 52.0319 4.848 52.8639 4.848H53.0879C53.9199 4.848 54.3359 5.264 54.3359 6.096V6.336C54.3359 7.168 53.9199 7.584 53.0879 7.584H52.8639ZM59.9053 6.896C59.6173 6.896 59.3933 7.008 59.2333 7.232C59.0839 7.456 59.0093 7.776 59.0093 8.192V9.2H60.6733V10.672H59.0093V18H56.6413V10.672H55.3133V9.2H56.6413V8.176C56.6413 7.26933 56.8759 6.57067 57.3453 6.08C57.8253 5.57867 58.5079 5.328 59.3932 5.328C60.0013 5.328 60.4866 5.42933 60.8493 5.632C61.2226 5.824 61.4093 6.08 61.4093 6.4C61.4093 6.53867 61.3879 6.67733 61.3453 6.816C61.3026 6.944 61.2439 7.05067 61.1693 7.136C60.8066 6.976 60.3853 6.896 59.9053 6.896ZM65.669 18.16C64.3783 18.16 63.3757 17.76 62.661 16.96C61.957 16.16 61.605 15.0347 61.605 13.584C61.605 12.1333 61.957 11.0133 62.661 10.224C63.3757 9.43467 64.3783 9.04 65.669 9.04C66.9597 9.04 67.957 9.43467 68.661 10.224C69.3757 11.0133 69.733 12.1333 69.733 13.584C69.733 15.0347 69.3757 16.16 68.661 16.96C67.957 17.76 66.9597 18.16 65.669 18.16ZM65.669 16.624C66.2557 16.624 66.677 16.384 66.933 15.904C67.1997 15.424 67.333 14.6507 67.333 13.584C67.333 12.528 67.1997 11.7653 66.933 11.296C66.677 10.816 66.2557 10.576 65.669 10.576C65.0823 10.576 64.6557 10.8107 64.389 11.28C64.133 11.7493 64.005 12.5173 64.005 13.584C64.005 14.6507 64.133 15.424 64.389 15.904C64.6557 16.384 65.0823 16.624 65.669 16.624ZM75.5948 9.088C76.1068 9.088 76.4801 9.2 76.7148 9.424C76.9494 9.63733 77.0668 9.984 77.0668 10.464C77.0668 10.6453 77.0401 10.8267 76.9868 11.008C76.9441 11.1787 76.8801 11.312 76.7948 11.408C76.6668 11.3333 76.5228 11.28 76.3628 11.248C76.2028 11.216 75.9734 11.2 75.6748 11.2C74.9814 11.2 74.4641 11.4133 74.1228 11.84C73.7921 12.2667 73.6268 12.9173 73.6268 13.792V18H71.2588V9.2H73.6268V10.368C73.8401 9.952 74.1174 9.63733 74.4588 9.424C74.8001 9.2 75.1788 9.088 75.5948 9.088ZM88.0016 9.04C88.8443 9.04 89.5056 9.29067 89.9856 9.792C90.4763 10.2827 90.7216 10.9653 90.7216 11.84V18H88.3376V11.888C88.3376 11.3653 88.263 11.0133 88.1136 10.832C87.975 10.64 87.703 10.544 87.2976 10.544C86.6896 10.544 86.1776 10.8107 85.7616 11.344V11.536V18H83.3936V11.728C83.3936 11.28 83.3296 10.9707 83.2016 10.8C83.0843 10.6293 82.8603 10.544 82.5296 10.544C81.9536 10.544 81.3723 10.8907 80.7856 11.584V18H78.4176V12.352C78.4176 10.8373 78.3536 9.904 78.2256 9.552C78.4283 9.43467 78.6843 9.33867 78.9936 9.264C79.303 9.17867 79.5856 9.136 79.8416 9.136C80.1296 9.136 80.343 9.22133 80.4816 9.392C80.631 9.552 80.727 9.82933 80.7696 10.224C81.1536 9.808 81.5536 9.50933 81.9696 9.328C82.3856 9.136 82.8496 9.04 83.3616 9.04C83.8523 9.04 84.279 9.14133 84.6416 9.344C85.0043 9.536 85.2816 9.81867 85.4736 10.192C86.071 9.424 86.9136 9.04 88.0016 9.04Z" fill="#111827"/>
<path d="M9 12H15H9ZM9 16H15H9ZM17 21H7C6.46957 21 5.96086 20.7893 5.58579 20.4142C5.21071 20.0391 5 19.5304 5 19V5C5 4.46957 5.21071 3.96086 5.58579 3.58579C5.96086 3.21071 6.46957 3 7 3H12.586C12.8512 3.00006 13.1055 3.10545 13.293 3.293L18.707 8.707C18.8946 8.89449 18.9999 9.1488 19 9.414V19C19 19.5304 18.7893 20.0391 18.4142 20.4142C18.0391 20.7893 17.5304 21 17 21Z" stroke="url(#paint0_linear)" stroke-width="2" stroke-linecap="round" stroke-linejoin="round"/>
<defs>
<linearGradient id="paint0_linear" x1="5" y1="3" x2="19" y2="21" gradientUnits="userSpaceOnUse">
<stop stop-color="#F472B6"/>
<stop offset="0.497917" stop-color="#DB2777"/>
<stop offset="1" stop-color="#BE185D"/>
</linearGradient>
</defs>
</svg>
